<svg width="174" height="60" viewBox="0 0 174 60" fill="none" xmlns="http://www.w3.org/2000/svg">
<path d="M18.943 0.627523C11.5498 4.607 5.30506 9.07202 2.16197 14.969C-1.28395 21.4342 -0.434568 28.3826 3.46143 35.6201C5.49766 39.4028 8.09644 42.3033 11.2821 44.2172C14.4789 46.1377 17.9311 46.8628 21.3415 46.8184C27.9043 46.7331 34.6617 43.7839 40.4865 40.6486C43.037 39.2758 43.9916 36.0955 42.6187 33.5451C41.2459 30.9948 38.0654 30.0402 35.5149 31.413C29.9047 34.4328 25.0632 36.2805 21.205 36.3307C19.4049 36.3541 17.941 35.9816 16.684 35.2264C15.4158 34.4645 14.0229 33.1111 12.6974 30.6487C9.86996 25.3962 10.1372 22.3061 11.4184 19.9023C13.0024 16.9303 16.7941 13.6959 23.9146 9.86317C26.465 8.49035 27.4197 5.31 26.0468 2.75965C24.6739 0.209295 21.4935 -0.745289 18.943 0.627523Z" fill="white"/>
<path d="M42.057 59.3725C49.4502 55.393 55.6949 50.928 58.838 45.031C62.2839 38.5658 61.4346 31.6174 57.5386 24.3799C55.5023 20.5972 52.9036 17.6967 49.7179 15.7828C46.5211 13.8623 43.0689 13.1372 39.6585 13.1816C33.0957 13.2669 26.3383 16.2161 20.5135 19.3514C17.963 20.7242 17.0084 23.9045 18.3813 26.4549C19.7541 29.0052 22.9346 29.9598 25.4851 28.587C31.0953 25.5672 35.9368 23.7195 39.795 23.6693C41.5951 23.6459 43.059 24.0184 44.316 24.7736C45.5842 25.5355 46.9771 26.8889 48.3026 29.3513C51.13 34.6038 50.8628 37.6939 49.5816 40.0977C47.9976 43.0697 44.2059 46.3041 37.0854 50.1368C34.535 51.5096 33.5803 54.69 34.9532 57.2404C36.3261 59.7907 39.5065 60.7453 42.057 59.3725Z" fill="white"/>
<path d="M86.1144 43.3096C84.6696 43.3096 83.3611 42.9381 82.1888 42.1951C81.0247 41.4438 80.1001 40.3416 79.4148 38.8886C78.7378 37.4273 78.3994 35.6358 78.3994 33.5141C78.3994 31.3346 78.7502 29.5224 79.452 28.0777C80.1537 26.6246 81.0866 25.539 82.2507 24.8208C83.423 24.0942 84.7068 23.731 86.102 23.731C87.167 23.731 88.0545 23.9126 88.7645 24.2759C89.4828 24.6309 90.0607 25.0767 90.4982 25.6133C90.944 26.1417 91.2825 26.6618 91.5137 27.1737H91.6747V17.6382H96.9377V43H91.7366V39.9536H91.5137C91.266 40.482 90.9151 41.0062 90.4611 41.5263C90.0153 42.0382 89.4332 42.4634 88.715 42.8019C88.005 43.1403 87.1381 43.3096 86.1144 43.3096ZM87.7862 39.1115C88.6365 39.1115 89.3548 38.8804 89.9409 38.418C90.5354 37.9475 90.9894 37.2911 91.3032 36.449C91.6251 35.6069 91.7861 34.6204 91.7861 33.4893C91.7861 32.3583 91.6293 31.3758 91.3155 30.542C91.0018 29.7082 90.5477 29.0642 89.9533 28.6102C89.3589 28.1561 88.6365 27.9291 87.7862 27.9291C86.9193 27.9291 86.1887 28.1643 85.5943 28.6349C84.9999 29.1055 84.5499 29.7577 84.2445 30.5915C83.939 31.4254 83.7863 32.3913 83.7863 33.4893C83.7863 34.5956 83.939 35.5739 84.2445 36.4243C84.5582 37.2664 85.0081 37.9268 85.5943 38.4057C86.1887 38.8762 86.9193 39.1115 87.7862 39.1115Z" fill="white"/>
<path d="M101.275 43V23.9787H106.551V43H101.275ZM103.925 21.5267C103.141 21.5267 102.468 21.2666 101.907 20.7465C101.354 20.2181 101.077 19.5866 101.077 18.8518C101.077 18.1253 101.354 17.502 101.907 16.9819C102.468 16.4535 103.141 16.1893 103.925 16.1893C104.71 16.1893 105.378 16.4535 105.931 16.9819C106.493 17.502 106.773 18.1253 106.773 18.8518C106.773 19.5866 106.493 20.2181 105.931 20.7465C105.378 21.2666 104.71 21.5267 103.925 21.5267Z" fill="white"/>
<path d="M119.346 50.5293C117.637 50.5293 116.172 50.294 114.95 49.8234C113.736 49.3611 112.77 48.7295 112.052 47.9287C111.334 47.1279 110.867 46.228 110.653 45.2291L115.532 44.5727C115.68 44.9525 115.916 45.3075 116.238 45.6377C116.56 45.968 116.985 46.2321 117.513 46.4303C118.05 46.6367 118.702 46.7399 119.47 46.7399C120.617 46.7399 121.563 46.4592 122.306 45.8978C123.057 45.3446 123.433 44.4159 123.433 43.1115V39.6316H123.21C122.979 40.16 122.632 40.6595 122.169 41.1301C121.707 41.6006 121.113 41.9845 120.386 42.2817C119.66 42.579 118.793 42.7276 117.786 42.7276C116.357 42.7276 115.057 42.3973 113.885 41.7369C112.721 41.0681 111.792 40.0486 111.098 38.6781C110.413 37.2994 110.071 35.5574 110.071 33.4522C110.071 31.2974 110.422 29.4977 111.123 28.0529C111.825 26.6081 112.758 25.5266 113.922 24.8084C115.094 24.0901 116.378 23.731 117.773 23.731C118.838 23.731 119.73 23.9126 120.448 24.2759C121.166 24.6309 121.744 25.0767 122.182 25.6133C122.628 26.1417 122.97 26.6618 123.21 27.1737H123.408V23.9787H128.646V43.1858C128.646 44.8039 128.25 46.1578 127.457 47.2476C126.665 48.3374 125.567 49.1547 124.163 49.6996C122.768 50.2527 121.162 50.5293 119.346 50.5293ZM119.457 38.7648C120.308 38.7648 121.026 38.5543 121.612 38.1332C122.207 37.7039 122.661 37.093 122.974 36.3004C123.296 35.4996 123.457 34.5419 123.457 33.4274C123.457 32.3129 123.301 31.347 122.987 30.5296C122.673 29.7041 122.219 29.0642 121.625 28.6102C121.03 28.1561 120.308 27.9291 119.457 27.9291C118.591 27.9291 117.86 28.1643 117.266 28.6349C116.671 29.0972 116.221 29.7412 115.916 30.5668C115.61 31.3924 115.458 32.3459 115.458 33.4274C115.458 34.5254 115.61 35.4748 115.916 36.2757C116.229 37.0682 116.679 37.6833 117.266 38.1208C117.86 38.5501 118.591 38.7648 119.457 38.7648Z" fill="white"/>
<path d="M132.844 43V23.9787H138.12V43H132.844ZM135.494 21.5267C134.71 21.5267 134.037 21.2666 133.476 20.7465C132.923 20.2181 132.646 19.5866 132.646 18.8518C132.646 18.1253 132.923 17.502 133.476 16.9819C134.037 16.4535 134.71 16.1893 135.494 16.1893C136.279 16.1893 136.947 16.4535 137.5 16.9819C138.062 17.502 138.343 18.1253 138.343 18.8518C138.343 19.5866 138.062 20.2181 137.5 20.7465C136.947 21.2666 136.279 21.5267 135.494 21.5267Z" fill="white"/>
<path d="M152.463 23.9787V27.9414H141.008V23.9787H152.463ZM143.609 19.4215H148.884V37.1549C148.884 37.642 148.958 38.0218 149.107 38.2942C149.256 38.5584 149.462 38.7441 149.726 38.8515C149.999 38.9588 150.312 39.0125 150.667 39.0125C150.915 39.0125 151.163 38.9918 151.41 38.9505C151.658 38.901 151.848 38.8638 151.98 38.8391L152.81 42.7647C152.546 42.8473 152.174 42.9422 151.695 43.0495C151.216 43.1651 150.634 43.2353 149.949 43.2601C148.678 43.3096 147.563 43.1404 146.606 42.7523C145.656 42.3643 144.917 41.7616 144.389 40.9443C143.861 40.127 143.6 39.095 143.609 37.8484V19.4215Z" fill="white"/>
<path d="M159.156 50.133C158.488 50.133 157.86 50.0793 157.274 49.972C156.696 49.8729 156.217 49.745 155.838 49.5881L157.026 45.6501C157.646 45.84 158.203 45.9432 158.698 45.9597C159.202 45.9762 159.635 45.8606 159.999 45.613C160.37 45.3653 160.671 44.9442 160.903 44.3498L161.212 43.5449L154.389 23.9787H159.937L163.875 37.9475H164.073L168.048 23.9787H173.633L166.24 45.0557C165.885 46.0794 165.402 46.971 164.791 47.7306C164.188 48.4984 163.425 49.0886 162.5 49.5014C161.575 49.9225 160.461 50.133 159.156 50.133Z" fill="white"/>
</svg>
