<svg width="31" height="31" viewBox="0 0 31 31" fill="none" xmlns="http://www.w3.org/2000/svg">
<path d="M15.2792 14.9328C17.3307 14.9328 19.1069 14.197 20.5586 12.7453C22.0098 11.2939 22.7458 9.5179 22.7458 7.46617C22.7458 5.41515 22.01 3.63895 20.5583 2.18702C19.1066 0.735785 17.3304 0 15.2792 0C13.2274 0 11.4515 0.735785 9.99999 2.18725C8.54852 3.63872 7.8125 5.41491 7.8125 7.46617C7.8125 9.5179 8.54852 11.2941 9.99999 12.7456C11.4519 14.1968 13.2281 14.9328 15.2792 14.9328ZM11.2847 3.47174C12.3985 2.35801 13.7049 1.81664 15.2792 1.81664C16.8531 1.81664 18.1599 2.35801 19.2738 3.47174C20.3876 4.58571 20.9292 5.89243 20.9292 7.46617C20.9292 9.04039 20.3876 10.3469 19.2738 11.4608C18.1599 12.5748 16.8531 13.1162 15.2792 13.1162C13.7054 13.1162 12.3989 12.5746 11.2847 11.4608C10.1708 10.3471 9.62914 9.04039 9.62914 7.46617C9.62914 5.89243 10.1708 4.58571 11.2847 3.47174Z" fill="#F1E8E8"/>
<path d="M28.3477 23.8379C28.3058 23.2338 28.2211 22.5749 28.0965 21.8791C27.9707 21.1781 27.8086 20.5153 27.6147 19.9096C27.4141 19.2836 27.1419 18.6654 26.8049 18.0729C26.4556 17.458 26.045 16.9225 25.5843 16.4819C25.1025 16.0209 24.5126 15.6503 23.8305 15.38C23.1508 15.1111 22.3975 14.9748 21.5917 14.9748C21.2753 14.9748 20.9692 15.1047 20.3782 15.4895C20.0144 15.7267 19.5889 16.0011 19.114 16.3045C18.7079 16.5633 18.1578 16.8057 17.4783 17.0252C16.8154 17.2397 16.1423 17.3485 15.4777 17.3485C14.8135 17.3485 14.1404 17.2397 13.477 17.0252C12.7982 16.8059 12.2479 16.5635 11.8425 16.3047C11.3721 16.0041 10.9463 15.7298 10.5771 15.4893C9.98657 15.1045 9.68053 14.9746 9.36408 14.9746C8.55804 14.9746 7.80499 15.1111 7.1255 15.3802C6.44387 15.6501 5.85378 16.0207 5.37153 16.4821C4.9108 16.923 4.50022 17.4582 4.15113 18.0729C3.81458 18.6654 3.54211 19.2834 3.34155 19.9099C3.14785 20.5156 2.98584 21.1781 2.86002 21.8791C2.73514 22.5739 2.6507 23.2331 2.60884 23.8386C2.56769 24.4305 2.54688 25.0467 2.54688 25.6692C2.54688 27.2874 3.06129 28.5974 4.07568 29.5635C5.07755 30.5169 6.40295 31.0003 8.01525 31.0003H22.9419C24.5538 31.0003 25.8792 30.5169 26.8813 29.5635C27.8959 28.5981 28.4103 27.2876 28.4103 25.6689C28.4101 25.0443 28.389 24.4282 28.3477 23.8379ZM25.6287 28.2474C24.9667 28.8774 24.0878 29.1837 22.9417 29.1837H8.01525C6.86888 29.1837 5.99001 28.8774 5.32825 28.2476C4.67902 27.6296 4.36352 26.786 4.36352 25.6692C4.36352 25.0883 4.38268 24.5147 4.42099 23.9641C4.45836 23.424 4.53475 22.8306 4.64804 22.2C4.75991 21.5773 4.90229 20.9929 5.07163 20.4638C5.23412 19.9565 5.45573 19.4541 5.73055 18.9702C5.99284 18.509 6.29463 18.1133 6.62764 17.7945C6.93913 17.4963 7.33173 17.2522 7.79435 17.0691C8.2222 16.8998 8.70303 16.8071 9.22501 16.7931C9.28863 16.827 9.40192 16.8915 9.58545 17.0112C9.9589 17.2546 10.3894 17.5322 10.8652 17.8362C11.4016 18.1781 12.0927 18.487 12.9184 18.7536C13.7625 19.0265 14.6234 19.1651 15.4779 19.1651C16.3324 19.1651 17.1935 19.0265 18.0372 18.7538C18.8635 18.4868 19.5544 18.1781 20.0915 17.8357C20.5785 17.5244 20.9969 17.2548 21.3703 17.0112C21.5539 16.8918 21.6672 16.827 21.7308 16.7931C22.253 16.8071 22.7338 16.8998 23.1619 17.0691C23.6243 17.2522 24.0169 17.4965 24.3284 17.7945C24.6614 18.1131 24.9632 18.5088 25.2255 18.9705C25.5005 19.4541 25.7224 19.9567 25.8846 20.4636C26.0542 20.9933 26.1968 21.5775 26.3085 22.1998C26.4215 22.8315 26.4981 23.4251 26.5355 23.9644V23.9649C26.5741 24.5133 26.5934 25.0866 26.5937 25.6692C26.5934 26.7862 26.2779 27.6296 25.6287 28.2474Z" fill="#F1E8E8"/>
</svg>
